HIERARCHY
ROOT Hips
{
	OFFSET 0.00000 0.00000 0.00000
	CHANNELS 6 Xposition Yposition Zposition Zrotation Yrotation Xrotation 
	JOINT LHipJoint
	{
		OFFSET 0 0 0
		CHANNELS 3 Zrotation Yrotation Xrotation
		JOINT LeftUpLeg
		{
			OFFSET 1.64549 -1.70879 0.84566
			CHANNELS 3 Zrotation Yrotation Xrotation
			JOINT LeftLeg
			{
				OFFSET 2.24963 -6.18082 0.00000
				CHANNELS 3 Zrotation Yrotation Xrotation
				JOINT LeftFoot
				{
					OFFSET 2.71775 -7.46697 0.00000
					CHANNELS 3 Zrotation Yrotation Xrotation
					JOINT LeftToeBase
					{
						OFFSET 0.18768 -0.51564 2.24737
						CHANNELS 3 Zrotation Yrotation Xrotation
						End Site
						{
							OFFSET 0.00000 -0.00000 1.15935
						}
					}
				}
			}
		}
	}
	JOINT RHipJoint
	{
		OFFSET 0 0 0
		CHANNELS 3 Zrotation Yrotation Xrotation
		JOINT RightUpLeg
		{
			OFFSET -1.58830 -1.70879 0.84566
			CHANNELS 3 Zrotation Yrotation Xrotation
			JOINT RightLeg
			{
				OFFSET -2.25006 -6.18201 0.00000
				CHANNELS 3 Zrotation Yrotation Xrotation
				JOINT RightFoot
				{
					OFFSET -2.72829 -7.49593 0.00000
					CHANNELS 3 Zrotation Yrotation Xrotation
					JOINT RightToeBase
					{
						OFFSET -0.21541 -0.59185 2.10643
						CHANNELS 3 Zrotation Yrotation Xrotation
						End Site
						{
							OFFSET -0.00000 -0.00000 1.09838
						}
					}
				}
			}
		}
	}
	JOINT LowerBack
	{
		OFFSET 0 0 0
		CHANNELS 3 Zrotation Yrotation Xrotation
		JOINT Spine
		{
			OFFSET 0.03142 2.10496 -0.11038
			CHANNELS 3 Zrotation Yrotation Xrotation
			JOINT Spine1
			{
				OFFSET -0.01863 2.10897 -0.06956
				CHANNELS 3 Zrotation Yrotation Xrotation
				JOINT Neck
				{
					OFFSET 0 0 0
					CHANNELS 3 Zrotation Yrotation Xrotation
					JOINT Neck1
					{
						OFFSET -0.02267 1.73238 0.00451
						CHANNELS 3 Zrotation Yrotation Xrotation
						JOINT Head
						{
							OFFSET -0.05808 1.54724 -0.61749
							CHANNELS 3 Zrotation Yrotation Xrotation
							End Site
							{
								OFFSET -0.01396 1.71468 -0.21082
							}
						}
					}
				}
				JOINT LeftShoulder
				{
					OFFSET 0 0 0
					CHANNELS 3 Zrotation Yrotation Xrotation
					JOINT LeftArm
					{
						OFFSET 3.44898 0.50298 0.21920
						CHANNELS 3 Zrotation Yrotation Xrotation
						JOINT LeftForeArm
						{
							OFFSET 5.41917 -0.00000 -0.00000
							CHANNELS 3 Zrotation Yrotation Xrotation
							JOINT LeftHand
							{
								OFFSET 2.44373 -0.00000 0.00000
								CHANNELS 3 Zrotation Yrotation Xrotation
								JOINT LeftFingerBase
								{
									OFFSET 0 0 0
									CHANNELS 3 Zrotation Yrotation Xrotation
									JOINT LeftHandIndex1
									{
										OFFSET 0.72750 -0.00000 0.00000
										CHANNELS 3 Zrotation Yrotation Xrotation
										End Site
										{
											OFFSET 0.58653 -0.00000 0.00000
										}
									}
								}
								JOINT LThumb
								{
									OFFSET 0 0 0
									CHANNELS 3 Zrotation Yrotation Xrotation
									End Site
									{
										OFFSET 0.59549 -0.00000 0.59549
									}
								}
							}
						}
					}
				}
				JOINT RightShoulder
				{
					OFFSET 0 0 0
					CHANNELS 3 Zrotation Yrotation Xrotation
					JOINT RightArm
					{
						OFFSET -3.23015 0.55830 0.31051
						CHANNELS 3 Zrotation Yrotation Xrotation
						JOINT RightForeArm
						{
							OFFSET -5.58976 -0.00010 0.00014
							CHANNELS 3 Zrotation Yrotation Xrotation
							JOINT RightHand
							{
								OFFSET -2.48060 -0.00000 0.00000
								CHANNELS 3 Zrotation Yrotation Xrotation
								JOINT RightFingerBase
								{
									OFFSET 0 0 0
									CHANNELS 3 Zrotation Yrotation Xrotation
									JOINT RightHandIndex1
									{
										OFFSET -0.81601 -0.00000 0.00000
										CHANNELS 3 Zrotation Yrotation Xrotation
										End Site
										{
											OFFSET -0.65789 -0.00000 0.00000
										}
									}
								}
								JOINT RThumb
								{
									OFFSET 0 0 0
									CHANNELS 3 Zrotation Yrotation Xrotation
									End Site
									{
										OFFSET -0.66793 -0.00000 0.66793
									}
								}
							}
						}
					}
				}
			}
		}
	}
}
MOTION
Frames: 9
Frame Time: .0083333
-1.2549 18.3004 -0.7192 -172.0860 7.8661 -165.1220 0.0000 0.0000 0.0000 -12.6684 -15.3643 -35.1183 4.2177 12.4446 37.3233 2.7570 8.9436 -35.4745 7.3393 15.6111 50.1463 0.0000 0.0000 0.0000 14.5056 -53.5963 -71.4905 -28.6692 -18.0932 116.1489 14.7084 -53.6944 -18.8676 -9.9972 -17.4083 59.4790 5.7490 3.8791 -7.7416 2.3237 6.7903 -10.5792 -0.6798 3.7754 -6.5464 -1.9077 1.6456 -7.8724 2.2253 -1.3138 32.8330 0.7371 -1.8456 12.0907 -0.0000 -0.0000 0.0000 -1.7046 4.3194 50.1812 40.4241 -48.3192 -18.7554 -0.0000 -0.0000 40.0168 37.0658 0.6756 0.5103 -7.1250 0.0000 -0.0000 8.3263 30.7655 -2.9228 -0.0000 -0.0000 0.0000 4.6466 -14.6941 51.3874 -38.2292 46.9851 -17.1330 0.0000 0.0000 15.3469 -46.7140 43.3619 -36.0907 7.1250 -0.0000 -0.0000 -4.0238 23.9326 -5.3195
-1.2840 18.3372 -0.8855 -171.5590 7.2899 -164.7550 0.0000 0.0000 0.0000 -12.5001 -15.1990 -34.8863 4.1849 12.4025 37.1710 2.7701 8.9050 -35.5219 7.4209 15.6764 50.4490 0.0000 0.0000 0.0000 15.1838 -56.1539 -73.5354 -29.3761 -17.7461 118.4459 15.5466 -55.0033 -16.6773 -10.0109 -17.4160 59.5248 6.6206 3.8908 -8.2879 2.4214 6.8491 -10.7618 -1.0090 3.7957 -6.3866 -1.9240 1.6237 -7.7164 2.2929 -1.4052 32.9273 0.7522 -1.8954 12.1000 -0.0000 -0.0000 0.0000 -2.1431 5.1207 49.6383 37.5194 -46.5296 -16.6159 -0.0000 -0.0000 40.3139 37.2894 -0.9179 -0.6989 -7.1250 0.0000 -0.0000 8.3331 28.7841 -3.3231 -0.0000 -0.0000 0.0000 4.6948 -16.5768 49.3456 -35.4492 45.1302 -15.1308 0.0000 0.0000 16.3172 -46.7513 43.6293 -36.2606 7.1250 -0.0000 -0.0000 -3.9309 24.2112 -5.2059
-1.3059 18.3675 -1.0371 -171.2090 6.9108 -164.4610 0.0000 0.0000 0.0000 -12.4467 -15.0176 -34.7054 4.1435 12.3490 36.9780 2.4533 10.8996 -35.0415 7.1998 15.4979 49.6262 0.0000 0.0000 0.0000 15.7816 -58.6209 -75.6671 -30.0744 -17.3678 120.7606 16.1434 -55.5506 -17.5651 -10.1307 -17.4827 59.9243 7.1793 3.9167 -8.7592 2.4760 6.8894 -10.8437 -1.2127 3.8141 -6.1792 -1.9210 1.6211 -7.7012 2.4113 -1.4542 32.9698 0.7901 -1.9049 12.1166 -0.0000 -0.0000 0.0000 -2.4446 6.1401 48.9717 35.0240 -44.8293 -14.8303 -0.0000 -0.0000 40.6097 36.7018 0.6854 0.5109 -7.1250 0.0000 -0.0000 8.0397 30.7778 -2.8180 -0.0000 -0.0000 0.0000 4.9255 -18.1593 47.0385 -33.1019 43.4082 -13.4921 0.0000 0.0000 16.2916 -45.8334 44.1713 -35.6549 7.1250 -0.0000 -0.0000 -3.2951 24.3007 -4.3642
-1.3209 18.3993 -1.1716 -170.9060 6.6380 -164.1890 0.0000 0.0000 0.0000 -12.3706 -14.8541 -34.5307 4.0998 12.2920 36.7730 2.2253 12.2272 -34.6994 7.0183 15.3473 48.9435 0.0000 0.0000 0.0000 16.8702 -60.8511 -78.3567 -30.7589 -16.9604 123.0798 16.8136 -56.4162 -16.7937 -10.1512 -17.4940 59.9926 7.5973 3.8866 -8.8995 2.5337 6.9127 -11.0440 -1.3794 3.8238 -6.3027 -1.9910 1.7452 -7.7598 2.5916 -1.3854 33.2859 0.8739 -1.8857 12.2583 0.0000 0.0000 0.0000 -2.7030 7.2535 48.2590 32.5895 -43.0121 -13.1412 -0.0000 -0.0000 40.7637 35.9912 0.3504 0.2545 -7.1250 0.0000 -0.0000 7.4480 30.3674 -2.6811 0.0000 0.0000 0.0000 5.0554 -19.5351 44.9736 -30.8027 41.5715 -11.9387 0.0000 0.0000 16.5580 -45.4582 44.5947 -35.5043 7.1250 -0.0000 -0.0000 -2.9529 24.5332 -3.9161
-1.3305 18.4310 -1.2909 -170.5490 6.2844 -163.8490 0.0000 0.0000 0.0000 -12.1535 -14.7190 -34.4458 4.0493 12.2258 36.5354 2.3413 11.9009 -35.1052 7.1186 15.4309 49.3214 0.0000 0.0000 0.0000 18.6807 -62.8667 -81.5174 -31.3892 -16.5506 125.2659 17.2664 -57.7501 -12.4901 -9.9767 -17.3967 59.4104 7.9296 3.7785 -8.8120 2.6959 6.9013 -11.3399 -1.4237 3.8249 -6.6870 -1.7350 1.7167 -7.3533 2.4048 -1.4624 33.2049 0.7475 -1.9287 12.1411 0.0000 -0.0000 0.0000 -3.1399 8.3639 47.1908 30.3630 -41.2025 -11.6480 -0.0000 -0.0000 41.4404 35.7652 -0.4937 -0.3556 -7.1250 0.0000 -0.0000 7.1943 29.3365 -2.7667 0.0000 -0.0000 0.0000 4.9784 -20.6518 43.0874 -28.5675 39.6334 -10.4837 0.0000 0.0000 16.9120 -44.3917 44.8507 -34.6229 7.1250 -0.0000 -0.0000 -2.3729 24.2929 -3.1408
-1.3425 18.4586 -1.4212 -170.2060 5.9355 -163.5480 0.0000 0.0000 0.0000 -11.9725 -14.6579 -34.2692 4.0095 12.1730 36.3469 2.2081 12.7521 -34.9822 6.9966 15.3290 48.8614 0.0000 0.0000 0.0000 20.2933 -65.2947 -84.4166 -31.9813 -16.1330 127.3701 16.8768 -58.8977 -6.3287 -9.7724 -17.2799 58.7249 8.2866 3.6366 -8.9723 2.8958 6.7558 -11.4178 -1.4073 3.7595 -6.7011 -1.6136 1.7675 -7.7158 2.2913 -1.3718 33.3968 0.6919 -1.8833 12.2931 -0.0000 -0.0000 0.0000 -3.7103 9.6365 45.5281 28.2859 -39.3781 -10.3045 -0.0000 -0.0000 42.6848 35.6853 -0.8190 -0.5881 -7.1250 0.0000 -0.0000 7.1023 28.9403 -2.7982 -0.0000 -0.0000 0.0000 4.8890 -21.2177 41.1875 -26.2858 37.4896 -9.0611 0.0000 0.0000 17.1457 -44.6405 44.3262 -34.6068 7.1250 -0.0000 -0.0000 -2.6967 23.9002 -3.5609
-1.3666 18.4791 -1.5693 -170.0540 5.6418 -163.4530 0.0000 0.0000 0.0000 -12.2396 -14.4806 -33.8127 3.9778 12.1308 36.1963 2.0554 13.5024 -34.7009 6.8799 15.2299 48.4185 0.0000 0.0000 0.0000 21.0144 -68.2330 -86.7114 -32.5295 -15.7156 129.3680 16.2701 -59.9622 -0.8360 -9.6957 -17.2351 58.4664 8.6559 3.5394 -9.3374 3.0635 6.5539 -11.2357 -1.3957 3.6586 -6.3057 -1.5882 1.8618 -8.2761 2.0766 -1.1029 33.5078 0.6408 -1.7614 12.4488 0.0000 0.0000 0.0000 -4.4444 10.8394 43.2054 26.2780 -37.4819 -9.0563 -0.0000 -0.0000 44.1828 35.1180 -1.4849 -1.0440 -7.1250 0.0000 -0.0000 6.6041 28.1427 -2.7250 0.0000 0.0000 0.0000 4.7381 -21.4195 39.0057 -24.0544 35.2218 -7.7379 0.0000 0.0000 17.3781 -44.2916 44.3788 -34.3063 7.1250 -0.0000 -0.0000 -2.5190 23.7933 -3.3234
-1.3809 18.4944 -1.6885 -169.7510 5.0876 -163.0950 0.0000 0.0000 0.0000 -12.1345 -14.3239 -33.8575 3.9511 12.0950 36.0689 1.8836 14.1771 -34.2706 6.7936 15.1556 48.0894 0.0000 0.0000 0.0000 23.6519 -70.7353 -90.4817 -33.0252 -15.3106 131.2212 15.5762 -60.7601 3.5047 -9.6008 -17.1792 58.1456 9.1664 3.4796 -9.5436 3.0773 6.5643 -11.5218 -1.6588 3.6620 -6.4899 -1.3656 1.8466 -7.7839 1.9978 -1.1836 33.3882 0.5612 -1.7952 12.2974 -0.0000 -0.0000 0.0000 -4.6595 11.3630 41.4828 24.4059 -35.5906 -7.9416 -0.0000 -0.0000 45.4688 34.3962 -2.1077 -1.4424 -7.1250 0.0000 -0.0000 5.9967 27.4118 -2.5757 -0.0000 -0.0000 0.0000 4.7634 -22.1893 36.9024 -22.0217 33.0016 -6.5977 0.0000 0.0000 18.0995 -43.4920 44.3666 -33.5593 7.1250 -0.0000 -0.0000 -2.1642 23.4251 -2.8477
-1.3838 18.5092 -1.7987 -169.3460 4.7756 -162.6370 0.0000 0.0000 0.0000 -11.7456 -14.3565 -33.9261 3.9145 12.0457 35.8938 2.0853 13.3198 -34.7278 6.9933 15.3262 48.8489 0.0000 0.0000 0.0000 27.4659 -72.3950 -95.0442 -33.4735 -14.9198 132.9403 14.0340 -60.9278 8.5098 -9.4536 -17.0909 57.6460 9.5556 3.4681 -9.6337 3.1716 6.6444 -11.7515 -1.7752 3.7057 -6.6888 -1.2846 1.7883 -7.9842 1.9983 -1.3175 33.6104 0.5265 -1.8525 12.4359 0.0000 0.0000 0.0000 -4.8697 11.6611 39.5301 22.5277 -33.5683 -6.8754 -0.0000 -0.0000 46.4734 33.7190 -2.6284 -1.7530 -7.1250 0.0000 -0.0000 5.4377 26.8117 -2.4105 0.0000 0.0000 0.0000 4.9724 -22.6144 33.9039 -19.8921 30.5122 -5.4765 0.0000 0.0000 19.6360 -42.9913 44.0124 -32.9323 7.1250 -0.0000 -0.0000 -2.0766 22.8621 -2.7216
